<mxfile host="app.diagrams.net" modified="2023-07-07T10:26:16.161Z" agent="Mozilla/5.0 (Windows NT 10.0; Win64; x64) AppleWebKit/537.36 (KHTML, like Gecko) Chrome/114.0.0.0 Safari/537.36 Edg/114.0.1823.58" etag="udcbWNznyVGLC6k8AJH-" version="21.6.1" type="github">
  <diagram name="Page-1" id="heLb62Q9hVG-_x0x0usm">
    <mxGraphModel dx="1386" dy="764" grid="1" gridSize="10" guides="1" tooltips="1" connect="1" arrows="1" fold="1" page="1" pageScale="1" pageWidth="850" pageHeight="1100" math="0" shadow="0">
      <root>
        <mxCell id="0" />
        <mxCell id="1" parent="0" />
        <mxCell id="XJ2eFweoLVhrrMTU2izS-9" value="" style="edgeStyle=orthogonalEdgeStyle;rounded=0;orthogonalLoop=1;jettySize=auto;html=1;" edge="1" parent="1" source="XJ2eFweoLVhrrMTU2izS-1" target="XJ2eFweoLVhrrMTU2izS-8">
          <mxGeometry relative="1" as="geometry" />
        </mxCell>
        <mxCell id="XJ2eFweoLVhrrMTU2izS-1" value="Function" style="whiteSpace=wrap;html=1;aspect=fixed;" vertex="1" parent="1">
          <mxGeometry x="120" y="240" width="80" height="80" as="geometry" />
        </mxCell>
        <mxCell id="XJ2eFweoLVhrrMTU2izS-3" value="Unfitted Pipeline" style="whiteSpace=wrap;html=1;aspect=fixed;" vertex="1" parent="1">
          <mxGeometry x="120" y="80" width="80" height="80" as="geometry" />
        </mxCell>
        <mxCell id="XJ2eFweoLVhrrMTU2izS-5" value="Parameters" style="whiteSpace=wrap;html=1;aspect=fixed;" vertex="1" parent="1">
          <mxGeometry x="280" y="80" width="80" height="80" as="geometry" />
        </mxCell>
        <mxCell id="XJ2eFweoLVhrrMTU2izS-26" value="" style="edgeStyle=orthogonalEdgeStyle;rounded=0;orthogonalLoop=1;jettySize=auto;html=1;" edge="1" parent="1" source="XJ2eFweoLVhrrMTU2izS-8" target="XJ2eFweoLVhrrMTU2izS-25">
          <mxGeometry relative="1" as="geometry" />
        </mxCell>
        <mxCell id="XJ2eFweoLVhrrMTU2izS-8" value="Initial Fit of Model" style="whiteSpace=wrap;html=1;aspect=fixed;" vertex="1" parent="1">
          <mxGeometry x="120" y="400" width="80" height="80" as="geometry" />
        </mxCell>
        <mxCell id="XJ2eFweoLVhrrMTU2izS-12" value="" style="endArrow=classic;html=1;rounded=0;exitX=0.5;exitY=1;exitDx=0;exitDy=0;entryX=0.5;entryY=0;entryDx=0;entryDy=0;" edge="1" parent="1" source="XJ2eFweoLVhrrMTU2izS-3" target="XJ2eFweoLVhrrMTU2izS-1">
          <mxGeometry width="50" height="50" relative="1" as="geometry">
            <mxPoint x="400" y="180" as="sourcePoint" />
            <mxPoint x="450" y="130" as="targetPoint" />
          </mxGeometry>
        </mxCell>
        <mxCell id="XJ2eFweoLVhrrMTU2izS-15" value="" style="endArrow=classic;html=1;rounded=0;entryX=1;entryY=0.5;entryDx=0;entryDy=0;exitX=0.5;exitY=1;exitDx=0;exitDy=0;" edge="1" parent="1" source="XJ2eFweoLVhrrMTU2izS-5" target="XJ2eFweoLVhrrMTU2izS-1">
          <mxGeometry width="50" height="50" relative="1" as="geometry">
            <mxPoint x="400" y="180" as="sourcePoint" />
            <mxPoint x="450" y="130" as="targetPoint" />
            <Array as="points">
              <mxPoint x="320" y="280" />
            </Array>
          </mxGeometry>
        </mxCell>
        <mxCell id="XJ2eFweoLVhrrMTU2izS-16" value="Training/Testing data" style="whiteSpace=wrap;html=1;" vertex="1" parent="1">
          <mxGeometry x="440" y="60" width="120" height="60" as="geometry" />
        </mxCell>
        <mxCell id="XJ2eFweoLVhrrMTU2izS-19" value="Other parameters" style="whiteSpace=wrap;html=1;" vertex="1" parent="1">
          <mxGeometry x="440" y="120" width="120" height="60" as="geometry" />
        </mxCell>
        <mxCell id="XJ2eFweoLVhrrMTU2izS-22" value="" style="endArrow=classic;html=1;rounded=0;entryX=1;entryY=0.5;entryDx=0;entryDy=0;exitX=0;exitY=0.5;exitDx=0;exitDy=0;" edge="1" parent="1" source="XJ2eFweoLVhrrMTU2izS-16" target="XJ2eFweoLVhrrMTU2izS-5">
          <mxGeometry width="50" height="50" relative="1" as="geometry">
            <mxPoint x="400" y="180" as="sourcePoint" />
            <mxPoint x="450" y="130" as="targetPoint" />
          </mxGeometry>
        </mxCell>
        <mxCell id="XJ2eFweoLVhrrMTU2izS-23" value="" style="endArrow=classic;html=1;rounded=0;entryX=1;entryY=0.5;entryDx=0;entryDy=0;exitX=0;exitY=0.5;exitDx=0;exitDy=0;" edge="1" parent="1" source="XJ2eFweoLVhrrMTU2izS-19" target="XJ2eFweoLVhrrMTU2izS-5">
          <mxGeometry width="50" height="50" relative="1" as="geometry">
            <mxPoint x="450" y="80" as="sourcePoint" />
            <mxPoint x="370" y="130" as="targetPoint" />
          </mxGeometry>
        </mxCell>
        <mxCell id="XJ2eFweoLVhrrMTU2izS-28" value="" style="edgeStyle=orthogonalEdgeStyle;rounded=0;orthogonalLoop=1;jettySize=auto;html=1;" edge="1" parent="1" source="XJ2eFweoLVhrrMTU2izS-25" target="XJ2eFweoLVhrrMTU2izS-27">
          <mxGeometry relative="1" as="geometry" />
        </mxCell>
        <mxCell id="XJ2eFweoLVhrrMTU2izS-25" value="Get Predictions on held out test dataset" style="whiteSpace=wrap;html=1;aspect=fixed;" vertex="1" parent="1">
          <mxGeometry x="120" y="560" width="80" height="80" as="geometry" />
        </mxCell>
        <mxCell id="XJ2eFweoLVhrrMTU2izS-30" value="" style="edgeStyle=orthogonalEdgeStyle;rounded=0;orthogonalLoop=1;jettySize=auto;html=1;" edge="1" parent="1" source="XJ2eFweoLVhrrMTU2izS-27" target="XJ2eFweoLVhrrMTU2izS-29">
          <mxGeometry relative="1" as="geometry" />
        </mxCell>
        <mxCell id="XJ2eFweoLVhrrMTU2izS-27" value="Is F1 score above 0.6?" style="whiteSpace=wrap;html=1;aspect=fixed;" vertex="1" parent="1">
          <mxGeometry x="120" y="720" width="80" height="80" as="geometry" />
        </mxCell>
        <mxCell id="XJ2eFweoLVhrrMTU2izS-29" value="Return model" style="whiteSpace=wrap;html=1;aspect=fixed;" vertex="1" parent="1">
          <mxGeometry x="120" y="880" width="80" height="80" as="geometry" />
        </mxCell>
        <mxCell id="XJ2eFweoLVhrrMTU2izS-31" value="YES" style="ellipse;whiteSpace=wrap;html=1;" vertex="1" parent="1">
          <mxGeometry x="80" y="800" width="80" height="80" as="geometry" />
        </mxCell>
        <mxCell id="XJ2eFweoLVhrrMTU2izS-32" value="NO" style="ellipse;whiteSpace=wrap;html=1;" vertex="1" parent="1">
          <mxGeometry x="200" y="680" width="80" height="80" as="geometry" />
        </mxCell>
        <mxCell id="XJ2eFweoLVhrrMTU2izS-33" value="" style="curved=1;endArrow=classic;html=1;rounded=0;exitX=1;exitY=0.5;exitDx=0;exitDy=0;entryX=0.5;entryY=1;entryDx=0;entryDy=0;" edge="1" parent="1" source="XJ2eFweoLVhrrMTU2izS-27" target="XJ2eFweoLVhrrMTU2izS-34">
          <mxGeometry width="50" height="50" relative="1" as="geometry">
            <mxPoint x="330" y="720" as="sourcePoint" />
            <mxPoint x="550" y="820" as="targetPoint" />
            <Array as="points">
              <mxPoint x="430" y="810" />
              <mxPoint x="560" y="760" />
            </Array>
          </mxGeometry>
        </mxCell>
        <mxCell id="XJ2eFweoLVhrrMTU2izS-34" value="Is use_ratio True?" style="whiteSpace=wrap;html=1;aspect=fixed;" vertex="1" parent="1">
          <mxGeometry x="520" y="640" width="80" height="80" as="geometry" />
        </mxCell>
        <mxCell id="XJ2eFweoLVhrrMTU2izS-35" value="Resample data such that it models 1:1:1:1 confusion matrix" style="whiteSpace=wrap;html=1;aspect=fixed;" vertex="1" parent="1">
          <mxGeometry x="450" y="470" width="110" height="110" as="geometry" />
        </mxCell>
        <mxCell id="XJ2eFweoLVhrrMTU2izS-37" value="Resample data such that only wrong predictions are kept" style="whiteSpace=wrap;html=1;aspect=fixed;" vertex="1" parent="1">
          <mxGeometry x="560" y="470" width="110" height="110" as="geometry" />
        </mxCell>
        <mxCell id="XJ2eFweoLVhrrMTU2izS-38" value="Return dataset" style="whiteSpace=wrap;html=1;aspect=fixed;" vertex="1" parent="1">
          <mxGeometry x="520" y="320" width="80" height="80" as="geometry" />
        </mxCell>
        <mxCell id="XJ2eFweoLVhrrMTU2izS-39" value="Refit Model on new dataset" style="whiteSpace=wrap;html=1;aspect=fixed;" vertex="1" parent="1">
          <mxGeometry x="320" y="360" width="80" height="80" as="geometry" />
        </mxCell>
        <mxCell id="XJ2eFweoLVhrrMTU2izS-40" value="" style="curved=1;endArrow=classic;html=1;rounded=0;entryX=1;entryY=0.5;entryDx=0;entryDy=0;exitX=0.5;exitY=1;exitDx=0;exitDy=0;" edge="1" parent="1" source="XJ2eFweoLVhrrMTU2izS-39" target="XJ2eFweoLVhrrMTU2izS-25">
          <mxGeometry width="50" height="50" relative="1" as="geometry">
            <mxPoint x="330" y="480" as="sourcePoint" />
            <mxPoint x="380" y="430" as="targetPoint" />
            <Array as="points">
              <mxPoint x="380" y="570" />
              <mxPoint x="290" y="600" />
            </Array>
          </mxGeometry>
        </mxCell>
        <mxCell id="XJ2eFweoLVhrrMTU2izS-41" value="" style="endArrow=classic;html=1;rounded=0;entryX=1;entryY=0.5;entryDx=0;entryDy=0;exitX=0;exitY=0.5;exitDx=0;exitDy=0;" edge="1" parent="1" source="XJ2eFweoLVhrrMTU2izS-38" target="XJ2eFweoLVhrrMTU2izS-39">
          <mxGeometry width="50" height="50" relative="1" as="geometry">
            <mxPoint x="330" y="480" as="sourcePoint" />
            <mxPoint x="380" y="430" as="targetPoint" />
          </mxGeometry>
        </mxCell>
        <mxCell id="XJ2eFweoLVhrrMTU2izS-42" value="" style="endArrow=classic;html=1;rounded=0;entryX=0.5;entryY=1;entryDx=0;entryDy=0;exitX=0.5;exitY=0;exitDx=0;exitDy=0;" edge="1" parent="1" source="XJ2eFweoLVhrrMTU2izS-35" target="XJ2eFweoLVhrrMTU2izS-38">
          <mxGeometry width="50" height="50" relative="1" as="geometry">
            <mxPoint x="330" y="480" as="sourcePoint" />
            <mxPoint x="380" y="430" as="targetPoint" />
          </mxGeometry>
        </mxCell>
        <mxCell id="XJ2eFweoLVhrrMTU2izS-43" value="" style="endArrow=classic;html=1;rounded=0;entryX=0.5;entryY=1;entryDx=0;entryDy=0;exitX=0.5;exitY=0;exitDx=0;exitDy=0;" edge="1" parent="1" source="XJ2eFweoLVhrrMTU2izS-37" target="XJ2eFweoLVhrrMTU2izS-38">
          <mxGeometry width="50" height="50" relative="1" as="geometry">
            <mxPoint x="330" y="480" as="sourcePoint" />
            <mxPoint x="380" y="430" as="targetPoint" />
          </mxGeometry>
        </mxCell>
        <mxCell id="XJ2eFweoLVhrrMTU2izS-44" value="" style="endArrow=classic;html=1;rounded=0;entryX=0.5;entryY=1;entryDx=0;entryDy=0;exitX=0.5;exitY=0;exitDx=0;exitDy=0;" edge="1" parent="1" source="XJ2eFweoLVhrrMTU2izS-34" target="XJ2eFweoLVhrrMTU2izS-35">
          <mxGeometry width="50" height="50" relative="1" as="geometry">
            <mxPoint x="330" y="480" as="sourcePoint" />
            <mxPoint x="380" y="430" as="targetPoint" />
          </mxGeometry>
        </mxCell>
        <mxCell id="XJ2eFweoLVhrrMTU2izS-45" value="" style="endArrow=classic;html=1;rounded=0;entryX=0.5;entryY=1;entryDx=0;entryDy=0;" edge="1" parent="1" target="XJ2eFweoLVhrrMTU2izS-37">
          <mxGeometry width="50" height="50" relative="1" as="geometry">
            <mxPoint x="560" y="640" as="sourcePoint" />
            <mxPoint x="380" y="430" as="targetPoint" />
          </mxGeometry>
        </mxCell>
        <mxCell id="XJ2eFweoLVhrrMTU2izS-47" value="NO" style="ellipse;whiteSpace=wrap;html=1;" vertex="1" parent="1">
          <mxGeometry x="600" y="580" width="80" height="80" as="geometry" />
        </mxCell>
        <mxCell id="XJ2eFweoLVhrrMTU2izS-48" value="YES" style="ellipse;whiteSpace=wrap;html=1;" vertex="1" parent="1">
          <mxGeometry x="440" y="580" width="80" height="80" as="geometry" />
        </mxCell>
        <mxCell id="XJ2eFweoLVhrrMTU2izS-49" value="Amount of iterations can be adjusted via &#39;max_iter&#39; parameter" style="text;html=1;strokeColor=none;fillColor=none;align=center;verticalAlign=middle;whiteSpace=wrap;rounded=0;" vertex="1" parent="1">
          <mxGeometry x="600" y="305" width="120" height="110" as="geometry" />
        </mxCell>
        <mxCell id="XJ2eFweoLVhrrMTU2izS-50" value="&lt;h1&gt;&lt;span style=&quot;background-color: initial;&quot;&gt;Full Refit Model Function&lt;/span&gt;&lt;span style=&quot;background-color: initial; font-size: 12px; font-weight: normal;&quot;&gt;&amp;nbsp;&lt;/span&gt;&lt;br&gt;&lt;/h1&gt;" style="text;html=1;strokeColor=none;fillColor=none;spacing=5;spacingTop=-20;whiteSpace=wrap;overflow=hidden;rounded=0;" vertex="1" parent="1">
          <mxGeometry x="120" y="10" width="510" height="40" as="geometry" />
        </mxCell>
      </root>
    </mxGraphModel>
  </diagram>
</mxfile>
